<svg xmlns="http://www.w3.org/2000/svg" width="235.191" height="58" viewBox="0 0 235.191 58"><g transform="translate(-222.799 163.745)"><g transform="translate(289.48 -154.782)"><path d="M346.944-120.881h7.265a5.25,5.25,0,0,0,1.71,3.953,5.616,5.616,0,0,0,3.953,1.282,6.135,6.135,0,0,0,4.7-1.709,7.927,7.927,0,0,0,1.6-5.235,6.657,6.657,0,0,0-1.71-4.915,5.806,5.806,0,0,0-4.595-1.816,6.357,6.357,0,0,0-2.884.641,4.835,4.835,0,0,0-2.03,1.923l-6.838-.321,2.457-19.98h17.949a4.137,4.137,0,0,1,2.617,1.175,3.537,3.537,0,0,1,1.121,2.671v2.564H355.919l-.961,7.159a7.233,7.233,0,0,1,2.777-1.389,12.107,12.107,0,0,1,3.633-.534,12.278,12.278,0,0,1,9.082,3.419,12.294,12.294,0,0,1,3.526,9.081,12.74,12.74,0,0,1-3.846,9.723q-3.742,3.526-10.257,3.526-6.089,0-9.4-2.885A11.3,11.3,0,0,1,346.944-120.881Z" transform="translate(-346.944 147.058)" fill="#fff" fill-rule="evenodd"/><path d="M417.826-124.1v-16.24L407.569-124.1Zm-.107,14v-8.227H401.693v-6.624l14-21.9h5.555a3.537,3.537,0,0,1,2.671,1.121,4.129,4.129,0,0,1,1.175,2.617v18.8h4.381v5.984h-4.381v8.227Z" transform="translate(-372.286 146.965)" fill="#fff" fill-rule="evenodd"/><path d="M464.106-117.472q0,7.372,4.273,8.173t6.3-1.976a7.975,7.975,0,0,0,1.388-3.686,15.571,15.571,0,0,0,.054-4.968,9.95,9.95,0,0,0-1.763-4.38,4.7,4.7,0,0,0-4.06-1.923q-3.634,0-4.915,2.671a13.9,13.9,0,0,0-1.282,6.09Zm12.18,12.287V-107a8.169,8.169,0,0,1-5.182,3.739,10.632,10.632,0,0,1-6.464-.534,11.99,11.99,0,0,1-5.5-4.754,16.289,16.289,0,0,1-2.3-9.135q0-6.623,3.045-10.737t9.776-4.114a17.431,17.431,0,0,1,9.509,2.778q4.38,2.78,4.38,10.257v15.065q0,7.478-4.38,10.2a17.671,17.671,0,0,1-9.509,2.725q-9.831,0-12.18-9.189h7.8a5.542,5.542,0,0,0,2.617,2.3,5.556,5.556,0,0,0,3.526.428,5.8,5.8,0,0,0,3.206-2.084A8.68,8.68,0,0,0,476.285-105.185Z" transform="translate(-397.813 140.337)" fill="#fff" fill-rule="evenodd"/><path d="M517.386-120.57h10.9a6.927,6.927,0,0,0-1.5-4.274,5.131,5.131,0,0,0-3.953-1.5,5.209,5.209,0,0,0-3.847,1.5,6.129,6.129,0,0,0-1.6,4.274Zm12.821,8.333h5.343a11.668,11.668,0,0,1-4.488,6.838,13.6,13.6,0,0,1-8.334,2.457q-6.089,0-9.509-3.953-3.421-3.846-3.419-11,0-6.836,3.312-10.684,3.418-3.951,9.509-3.953,6.41,0,9.936,3.846,3.418,3.954,3.419,11v1.176a1.842,1.842,0,0,1-.107.748H517.386a7.348,7.348,0,0,0,1.6,4.915,5.047,5.047,0,0,0,4.167,1.71,6.052,6.052,0,0,0,3.1-.748,1.484,1.484,0,0,0,.588-.374l.588-.588a2.315,2.315,0,0,1,.8-.855A3.185,3.185,0,0,1,530.206-112.237Z" transform="translate(-422.327 140.337)" fill="#fff" fill-rule="evenodd"/><path d="M587.547-103.476h-3.74a3.539,3.539,0,0,1-2.618-1.016,3.538,3.538,0,0,1-1.015-2.617v-14.53a4.4,4.4,0,0,0-1.549-3.739,5.608,5.608,0,0,0-3.473-1.176,5.385,5.385,0,0,0-3.419,1.176,4.461,4.461,0,0,0-1.5,3.739v18.163H562.76v-16.667q0-7.265,3.793-9.723a16.587,16.587,0,0,1,8.387-2.671,16.085,16.085,0,0,1,8.654,2.457q3.951,2.459,3.953,9.937Z" transform="translate(-446.841 140.337)" fill="#fff" fill-rule="evenodd"/><path d="M619.525-120.57h10.9a6.933,6.933,0,0,0-1.5-4.274,5.132,5.132,0,0,0-3.953-1.5,5.208,5.208,0,0,0-3.846,1.5,6.126,6.126,0,0,0-1.6,4.274Zm12.82,8.333h5.342A11.665,11.665,0,0,1,633.2-105.4a13.6,13.6,0,0,1-8.333,2.457q-6.09,0-9.509-3.953-3.42-3.846-3.419-11,0-6.836,3.312-10.684,3.418-3.951,9.509-3.953,6.411,0,9.937,3.846,3.417,3.954,3.418,11v1.176a1.852,1.852,0,0,1-.106.748H619.525a7.346,7.346,0,0,0,1.6,4.915,5.047,5.047,0,0,0,4.167,1.71,6.055,6.055,0,0,0,3.1-.748,1.491,1.491,0,0,0,.588-.374l.587-.588a2.32,2.32,0,0,1,.8-.855A3.185,3.185,0,0,1,632.346-112.237Z" transform="translate(-469.605 140.337)" fill="#fff" fill-rule="evenodd"/></g><path d="M248.251-157.154a6.591,6.591,0,0,1-6.591,6.591,6.591,6.591,0,0,1-6.59-6.591,6.591,6.591,0,0,1,6.59-6.591A6.591,6.591,0,0,1,248.251-157.154Z" transform="translate(-5.68)" fill="#e73f70" fill-rule="evenodd"/><path d="M302.242-73.713a6.591,6.591,0,0,1-6.59,6.591,6.591,6.591,0,0,1-6.591-6.591,6.59,6.59,0,0,1,6.591-6.59A6.59,6.59,0,0,1,302.242-73.713Z" transform="translate(-30.671 -38.624)" fill="#e73f70" fill-rule="evenodd"/><path d="M280.852-148.81a6.591,6.591,0,0,1-6.59,6.591,6.591,6.591,0,0,1-6.591-6.591,6.591,6.591,0,0,1,6.591-6.591A6.591,6.591,0,0,1,280.852-148.81Z" transform="translate(-20.77 -3.862)" fill="#78b95c" fill-rule="evenodd"/><path d="M245.306-124.268a6.591,6.591,0,0,1-6.591,6.59,6.591,6.591,0,0,1-6.591-6.59,6.591,6.591,0,0,1,6.591-6.591A6.591,6.591,0,0,1,245.306-124.268Z" transform="translate(-4.316 -15.222)" fill="#78b95c" fill-rule="evenodd"/><path d="M260.258-143.13,244.4-130.93l3.119,2.5,14.809-10.749Z" transform="translate(-9.996 -9.542)" fill="#78b95c" fill-rule="evenodd"/><path d="M269.848-82.057a6.591,6.591,0,0,1-6.59,6.591,6.591,6.591,0,0,1-6.591-6.591,6.591,6.591,0,0,1,6.591-6.591A6.591,6.591,0,0,1,269.848-82.057Z" transform="translate(-15.676 -34.761)" fill="#2a3c65" fill-rule="evenodd"/><path d="M308.623-106.6a6.591,6.591,0,0,1-6.591,6.591,6.59,6.59,0,0,1-6.591-6.591,6.59,6.59,0,0,1,6.591-6.59A6.591,6.591,0,0,1,308.623-106.6Z" transform="translate(-33.625 -23.401)" fill="#2a3c65" fill-rule="evenodd"/><path d="M284.8-102.335l-15.862,12.2,3.119,2.5L286.864-98.38Z" transform="translate(-21.356 -28.425)" fill="#2a3c65" fill-rule="evenodd"/><path d="M314.513-141.448a6.591,6.591,0,0,1-6.591,6.591,6.59,6.59,0,0,1-6.59-6.591,6.59,6.59,0,0,1,6.59-6.59A6.591,6.591,0,0,1,314.513-141.448Z" transform="translate(-36.351 -7.27)" fill="#faae00" fill-rule="evenodd"/><path d="M235.98-88.438a6.591,6.591,0,0,1-6.59,6.591,6.591,6.591,0,0,1-6.591-6.591,6.591,6.591,0,0,1,6.591-6.591A6.591,6.591,0,0,1,235.98-88.438Z" transform="translate(0 -31.807)" fill="#faae00" fill-rule="evenodd"/><path d="M272.48-139.448l-43.258,30.516,3.118,2.5,42.2-29.065Z" transform="translate(-2.973 -11.246)" fill="#faae00" fill-rule="evenodd"/></g></svg>