<svg id="logo" xmlns="http://www.w3.org/2000/svg" width="153.049" height="30.352" viewBox="0 0 153.049 30.352">
  <path id="Path_2" data-name="Path 2" d="M11.328-18.2q5.938,0,5.938,7.656T11.328-2.891q-5.937,0-5.937-7.656T11.328-18.2ZM20.859.234V-11.875a10.3,10.3,0,0,0-2.3-6.875q-2.3-2.734-7.148-2.734Q1.953-21.563,1.8-10.625,1.641.391,10.859.391q4.453,0,6.328-3.281V.156q0,5.312-5.547,5.352T6.094,1.8H2.188q-.469,6.953,9.1,6.992T20.859.234Zm19.453-12.5H28.594q.7-5.938,5.9-5.937T40.313-12.266Zm3.594,3.047q.625-12.266-9.375-12.266-9.531,0-9.609,10.938Q25.078.391,34.3.391q7.656,0,9.3-6.875H41.25a2.276,2.276,0,0,0-2.109,1.25Q37.969-3.2,34.609-2.969q-5.547,0-6.016-6.25Zm13.125-9.062q5.234,0,5.234,5.391V-2.266A2.038,2.038,0,0,0,64.609,0h1.406V-12.5q.078-9.063-8.984-9.062T48.047-12.5V0h3.672V-12.891Q51.719-18.281,57.031-18.281Zm28.594,6.016H73.906q.7-5.938,5.9-5.937T85.625-12.266Zm3.594,3.047q.625-12.266-9.375-12.266-9.531,0-9.609,10.938Q70.391.391,79.609.391q7.656,0,9.3-6.875H86.563a2.276,2.276,0,0,0-2.109,1.25Q83.281-3.2,79.922-2.969q-5.547,0-6.016-6.25Zm7.813,6.328V6.016a2.038,2.038,0,0,1-2.344,2.266H93.359V-12.187q-.078-9.141,9.453-9.3,9.844-.156,9.609,10.859,0,11.094-9.062,11.016Q98.906.391,97.031-2.891ZM102.891-18.2q-5.937,0-5.937,7.656t5.938,7.656q5.938,0,5.938-7.656T102.891-18.2Zm19.688,5.7q-6.406,1.172-6.562,6.328Q115.859.391,123.75.391q5.312,0,7.578-1.953T133.594-7.5v-8.906q-.078-5.078-8.516-5.078-8.125.078-8.125,5.859h3.75q0-2.812,4.3-2.891,4.922-.156,4.922,2.5,0,2.266-2.812,2.734Q124.609-12.812,122.578-12.5Zm7.344,1.016V-7.5q0,4.844-5.547,4.844-4.375,0-4.375-3.4t4.453-4.023a30.249,30.249,0,0,0,3.75-.625A4.418,4.418,0,0,0,129.922-11.484Zm6.25-9.687L143.125-1.25a6.049,6.049,0,0,1,.078,4.375Q142.422,5,139.844,5h-.859V8.281h.859a5.546,5.546,0,0,0,3.672-1.172A9.389,9.389,0,0,0,146.25,3.2l8.594-24.375h-1.484a2.918,2.918,0,0,0-3.125,2.344L145.469-4.922,140-21.172Z" transform="translate(-1.794 21.563)" fill="#f9f9f9"/>
</svg>
