<?xml version="1.0" encoding="utf-8"?>
<!-- Generator: Adobe Illustrator 24.0.1, SVG Export Plug-In . SVG Version: 6.00 Build 0)  -->
<svg version="1.1" id="logo" xmlns="http://www.w3.org/2000/svg" xmlns:xlink="http://www.w3.org/1999/xlink" x="0px" y="0px"
	 viewBox="0 0 153 30.4" style="enable-background:new 0 0 153 30.4;" xml:space="preserve">
<style type="text/css">
	.st0{fill:#383838;}
</style>
<path id="Path_2" class="st0" d="M9.5,3.4c4,0,5.9,2.6,5.9,7.7s-2,7.7-5.9,7.7c-4,0-5.9-2.6-5.9-7.7S5.6,3.4,9.5,3.4z M19.1,21.8
	V9.7c0.1-2.5-0.7-4.9-2.3-6.9C15.2,1,12.8,0.1,9.6,0.1C3.3,0,0.1,3.6,0,10.9c-0.1,7.3,2.9,11,9.1,11c3,0,5.1-1.1,6.3-3.3v3
	c0,3.5-1.8,5.3-5.5,5.4c-3.7,0-5.5-1.2-5.5-3.7H0.4c-0.3,4.6,2.7,7,9.1,7S19.1,27.5,19.1,21.8z M38.5,9.3H26.8
	c0.5-4,2.4-5.9,5.9-5.9S38.1,5.3,38.5,9.3L38.5,9.3z M42.1,12.3c0.4-8.2-2.7-12.3-9.4-12.3c-6.4,0-9.6,3.6-9.6,10.9
	c0.1,7.3,3.2,10.9,9.4,10.9c5.1,0,8.2-2.3,9.3-6.9h-2.3c-0.9,0-1.7,0.5-2.1,1.2c-0.8,1.4-2.3,2.1-4.5,2.3c-3.7,0-5.7-2.1-6-6.3H42.1
	z M55.2,3.3c3.5,0,5.2,1.8,5.2,5.4v10.6c-0.1,1.1,0.7,2.1,1.8,2.3c0.2,0,0.4,0,0.6,0h1.4V9.1c0.1-6-2.9-9.1-9-9.1c-6,0-9,3-9,9.1
	v12.5h3.7V8.7C49.9,5.1,51.7,3.3,55.2,3.3z M83.8,9.3H72.1c0.5-4,2.4-5.9,5.9-5.9S83.4,5.3,83.8,9.3L83.8,9.3z M87.4,12.3
	c0.4-8.2-2.7-12.3-9.4-12.3c-6.4,0-9.6,3.6-9.6,10.9c0.1,7.3,3.2,10.9,9.4,10.9c5.1,0,8.2-2.3,9.3-6.9h-2.3c-0.9,0-1.7,0.5-2.1,1.2
	c-0.8,1.4-2.3,2.1-4.5,2.3c-3.7,0-5.7-2.1-6-6.3L87.4,12.3z M95.2,18.7v8.9c0.1,1.1-0.7,2.1-1.8,2.3c-0.2,0-0.4,0-0.6,0h-1.3V9.4
	c-0.1-6.1,3.1-9.2,9.5-9.3c6.6-0.1,9.8,3.5,9.6,10.9c0,7.4-3,11.1-9.1,11C98.6,22,96.5,20.9,95.2,18.7L95.2,18.7z M101.1,3.4
	c-4,0-5.9,2.6-5.9,7.7s2,7.7,5.9,7.7c4,0,5.9-2.6,5.9-7.7S105.1,3.4,101.1,3.4z M120.8,9.1c-4.3,0.8-6.5,2.9-6.6,6.3
	c-0.1,4.4,2.5,6.6,7.7,6.6c3.5,0,6.1-0.7,7.6-2s2.3-3.3,2.3-5.9V5.2c-0.1-3.4-2.9-5.1-8.5-5.1c-5.4,0.1-8.1,2-8.1,5.9h3.8
	c0-1.9,1.4-2.8,4.3-2.9c3.3-0.1,4.9,0.7,4.9,2.5c0,1.5-0.9,2.4-2.8,2.7C123.6,8.6,122.1,8.9,120.8,9.1L120.8,9.1z M128.1,10.1v4
	c0,3.2-1.8,4.8-5.5,4.8c-2.9,0-4.4-1.1-4.4-3.4c0-2.3,1.5-3.6,4.5-4c1.3-0.1,2.5-0.3,3.8-0.6C127,10.7,127.6,10.5,128.1,10.1
	L128.1,10.1z M134.4,0.4l7,19.9c0.6,1.4,0.6,3,0.1,4.4c-0.5,1.3-1.6,1.9-3.4,1.9h-0.9v3.3h0.9c1.3,0.1,2.6-0.4,3.7-1.2
	c1.2-1,2.2-2.4,2.7-3.9L153,0.4h-1.5c-1.5-0.1-2.8,0.9-3.1,2.3l-4.8,13.9l-5.5-16.3L134.4,0.4z"/>
</svg>
